<svg xmlns="http://www.w3.org/2000/svg" viewBox="0 0 512 512" style="height: 512px; width: 512px;"><g class="" transform="translate(-25,-25)" style=""><g transform="translate(0, 0) scale(1, 1) rotate(-105, 256, 256) skewX(0) skewY(0)"><path d="M372.386 52.97L357.564 66.034L460.808 183.176L475.63 170.112Z" class="" fill="#8da5f3" fill-opacity="0"></path><path d="M342.156 79.616L305.507 111.919L321.056 129.559Z" class="" fill="#8da5f3" fill-opacity="0"></path><path d="M359.021 95.962L338.579 144.344L337.122 147.792L356.134 169.362L378.031 117.53Z" class="" fill="#8da5f3" fill-opacity="0"></path><path d="M291.484 124.28L119.939 275.485L119.993 275.547L118.699 276.688C99.074 293.986 82.422 312.358 69.292 330.598L162.146 435.954C181.891 425.22 202.208 411.006 221.833 393.708L223.128 392.565L223.183 392.628L229.413 387.135L394.726 241.422Z" class="selected" fill="#8da5f3" fill-opacity="1"></path><path d="M394.099 135.762L373.656 184.147L372.2 187.592L393.038 211.233L414.935 159.403Z" class="" fill="#8da5f3" fill-opacity="0"></path><path d="M431.003 177.635L410.562 226.02L409.589 228.323L446.783 195.54Z" class="" fill="#8da5f3" fill-opacity="0"></path><path d="M58.583 346.723C54.355 353.682 50.653 360.571 47.568 367.315C40.838 382.027 36.868 396.093 36.411 409.095C35.954 422.096 39.238 434.354 47.341 443.547C55.444 452.741 67.191 457.536 80.146 458.715C93.101 459.895 107.554 457.723 122.993 452.893C130.071 450.679 137.37 447.873 144.804 444.551Z" class="" fill="#8da5f3" fill-opacity="1"></path></g></g></svg>